REM DIRINDEX 1\2\3,1\2\4,1\2\5,1\2\6
REM DIRNAME folder01,folder02,folder03,folder04,folder05,folder06
TITLE ""
FILE "037 037.mp3" MP3
  TRACK 01 AUDIO
    TITLE "0:"
    INDEX 01 00:00:00
  TRACK 02 AUDIO
    TITLE "3:cjc157_1408"
    INDEX 01 00:00:11
  TRACK 03 AUDIO
    TITLE "0:"
    INDEX 01 00:01:54
  TRACK 04 AUDIO
    TITLE "4:cjc157_1409"
    INDEX 01 00:02:26
  TRACK 05 AUDIO
    TITLE "0:"
    INDEX 01 00:03:55
  TRACK 06 AUDIO
    TITLE "5:cjc157_1410"
    INDEX 01 00:04:25
  TRACK 07 AUDIO
    TITLE "0:"
    INDEX 01 00:07:33
  TRACK 08 AUDIO
    TITLE "3:cjc157_1411"
    INDEX 01 00:07:74
  TRACK 09 AUDIO
    TITLE "0:"
    INDEX 01 00:09:16
  TRACK 10 AUDIO
    TITLE "4:cjc157_1412"
    INDEX 01 00:09:55
  TRACK 11 AUDIO
    TITLE "0:"
    INDEX 01 00:10:70
  TRACK 12 AUDIO
    TITLE "5:cjc157_1413"
    INDEX 01 00:11:39
  TRACK 13 AUDIO
    TITLE "0:"
    INDEX 01 00:13:61
  TRACK 14 AUDIO
    TITLE "5:cjc157_1414"
    INDEX 01 00:14:31
  TRACK 15 AUDIO
    TITLE "0:"
    INDEX 01 00:16:36
  TRACK 16 AUDIO
    TITLE "3:cjc157_1415"
    INDEX 01 00:17:16
  TRACK 17 AUDIO
    TITLE "0:"
    INDEX 01 00:18:27
  TRACK 18 AUDIO
    TITLE "4:cjc157_1416"
    INDEX 01 00:18:74
  TRACK 19 AUDIO
    TITLE "0:"
    INDEX 01 00:20:00
  TRACK 20 AUDIO
    TITLE "5:cjc157_1417"
    INDEX 01 00:20:45
  TRACK 21 AUDIO
    TITLE "0:"
    INDEX 01 00:23:42
  TRACK 22 AUDIO
    TITLE "5:cjc157_1418"
    INDEX 01 00:24:08
  TRACK 23 AUDIO
    TITLE "0:"
    INDEX 01 00:25:58
  TRACK 24 AUDIO
    TITLE "3:cjc157_1419"
    INDEX 01 00:26:26
  TRACK 25 AUDIO
    TITLE "0:"
    INDEX 01 00:27:73
  TRACK 26 AUDIO
    TITLE "4:cjc157_1420"
    INDEX 01 00:28:41
  TRACK 27 AUDIO
    TITLE "0:"
    INDEX 01 00:29:40
  TRACK 28 AUDIO
    TITLE "5:cjc157_1421"
    INDEX 01 00:30:12
  TRACK 29 AUDIO
    TITLE "0:"
    INDEX 01 00:32:52
  TRACK 30 AUDIO
    TITLE "5:cjc157_1422"
    INDEX 01 00:33:22
  TRACK 31 AUDIO
    TITLE "0:"
    INDEX 01 00:35:35
  TRACK 32 AUDIO
    TITLE "3:cjc157_1423"
    INDEX 01 00:36:03
  TRACK 33 AUDIO
    TITLE "0:"
    INDEX 01 00:37:44
  TRACK 34 AUDIO
    TITLE "4:cjc157_1424"
    INDEX 01 00:38:14
  TRACK 35 AUDIO
    TITLE "0:"
    INDEX 01 00:39:23
  TRACK 36 AUDIO
    TITLE "5:cjc157_1425"
    INDEX 01 00:39:70
  TRACK 37 AUDIO
    TITLE "0:"
    INDEX 01 00:43:21
  TRACK 38 AUDIO
    TITLE "3:cjc157_1426"
    INDEX 01 00:43:68
  TRACK 39 AUDIO
    TITLE "0:"
    INDEX 01 00:45:12
  TRACK 40 AUDIO
    TITLE "4:cjc157_1427"
    INDEX 01 00:45:59
  TRACK 41 AUDIO
    TITLE "0:"
    INDEX 01 00:46:66
  TRACK 42 AUDIO
    TITLE "5:cjc157_1428"
    INDEX 01 00:47:38
  TRACK 43 AUDIO
    TITLE "0:"
    INDEX 01 00:49:21
  TRACK 44 AUDIO
    TITLE "5:cjc157_1429"
    INDEX 01 00:49:69
  TRACK 45 AUDIO
    TITLE "0:"
    INDEX 01 00:53:21
  TRACK 46 AUDIO
    TITLE "3:cjc157_1430"
    INDEX 01 00:53:64
  TRACK 47 AUDIO
    TITLE "0:"
    INDEX 01 00:55:08
  TRACK 48 AUDIO
    TITLE "4:cjc157_1431"
    INDEX 01 00:55:51
  TRACK 49 AUDIO
    TITLE "0:"
    INDEX 01 00:56:61
  TRACK 50 AUDIO
    TITLE "5:cjc157_1432"
    INDEX 01 00:57:35
  TRACK 51 AUDIO
    TITLE "0:"
    INDEX 01 00:59:41
  TRACK 52 AUDIO
    TITLE "5:cjc157_1433"
    INDEX 01 01:00:13
  TRACK 53 AUDIO
    TITLE "0:"
    INDEX 01 01:02:63
  TRACK 54 AUDIO
    TITLE "3:cjc157_1434"
    INDEX 01 01:03:35
  TRACK 55 AUDIO
    TITLE "0:"
    INDEX 01 01:05:05
  TRACK 56 AUDIO
    TITLE "4:cjc157_1435"
    INDEX 01 01:05:44
  TRACK 57 AUDIO
    TITLE "0:"
    INDEX 01 01:06:67
  TRACK 58 AUDIO
    TITLE "5:cjc157_1436"
    INDEX 01 01:07:39
  TRACK 59 AUDIO
    TITLE "0:"
    INDEX 01 01:11:03
  TRACK 60 AUDIO
    TITLE "3:cjc157_1437"
    INDEX 01 01:11:51
  TRACK 61 AUDIO
    TITLE "0:"
    INDEX 01 01:13:10
  TRACK 62 AUDIO
    TITLE "4:cjc157_1438"
    INDEX 01 01:13:55
  TRACK 63 AUDIO
    TITLE "0:"
    INDEX 01 01:15:03
  TRACK 64 AUDIO
    TITLE "5:cjc157_1439"
    INDEX 01 01:15:46
  TRACK 65 AUDIO
    TITLE "0:"
    INDEX 01 01:17:61
  TRACK 66 AUDIO
    TITLE "5:cjc157_1440"
    INDEX 01 01:18:29
  TRACK 67 AUDIO
    TITLE "0:"
    INDEX 01 01:20:53
  TRACK 68 AUDIO
    TITLE "3:cjc157_1441"
    INDEX 01 01:21:23
  TRACK 69 AUDIO
    TITLE "0:"
    INDEX 01 01:22:66
  TRACK 70 AUDIO
    TITLE "4:cjc157_1442"
    INDEX 01 01:23:32
  TRACK 71 AUDIO
    TITLE "0:"
    INDEX 01 01:24:36
  TRACK 72 AUDIO
    TITLE "5:cjc157_1443"
    INDEX 01 01:25:06
  TRACK 73 AUDIO
    TITLE "0:"
    INDEX 01 01:27:32
